<svg width="27" height="23" viewBox="0 0 27 23" fill="none" xmlns="http://www.w3.org/2000/svg">
<path d="M25.9699 5.66361C25.8237 5.0912 25.598 4.54212 25.2993 4.03236C25.0125 3.50208 24.6457 3.01912 24.2118 2.60049C23.5828 1.9736 22.838 1.47498 22.0187 1.13236C20.3696 0.455554 18.5203 0.455554 16.8712 1.13236C16.0968 1.46013 15.3854 1.92011 14.7687 2.49174L14.6781 2.60049L13.4999 3.77861L12.3218 2.60049L12.2312 2.49174C11.6145 1.92011 10.903 1.46013 10.1287 1.13236C8.47959 0.455554 6.63028 0.455554 4.98119 1.13236C4.16191 1.47498 3.41705 1.9736 2.78806 2.60049C1.92778 3.43755 1.3188 4.49857 1.02994 5.66361C0.876265 6.25525 0.803105 6.86491 0.812438 7.47611C0.812438 8.05067 0.884938 8.62342 1.02994 9.17986C1.18189 9.74181 1.40096 10.2834 1.68244 10.793C1.98642 11.3168 2.35817 11.7983 2.78806 12.2249L13.4999 22.9367L24.2118 12.2249C24.6414 11.8025 25.0093 11.3186 25.2993 10.793C25.888 9.78724 26.1948 8.64145 26.1874 7.47611C26.1968 6.86491 26.1237 6.25524 25.9699 5.66361ZM24.1574 8.61799C23.9403 9.44615 23.509 10.2026 22.9068 10.8111L13.4637 20.2361L4.02056 10.8111C3.71284 10.5012 3.44494 10.1542 3.22306 9.77799C3.01427 9.40584 2.85002 9.01041 2.73369 8.59986C2.64082 8.18936 2.5922 7.77009 2.58869 7.34924C2.59115 6.91634 2.63975 6.48495 2.73369 6.06236C2.84661 5.65063 3.01103 5.2548 3.22306 4.88424C3.44056 4.50361 3.70881 4.15924 4.02056 3.85111C4.48619 3.39172 5.0332 3.02295 5.63369 2.76361C6.84374 2.27953 8.19364 2.27953 9.40369 2.76361C10.0018 3.01192 10.5419 3.37624 10.9987 3.83299L13.4637 6.31611L15.9287 3.83299C16.3851 3.37543 16.9271 3.01208 17.5237 2.76361C18.7337 2.27953 20.0836 2.27953 21.2937 2.76361C21.8936 3.0228 22.441 3.39255 22.9068 3.85111C23.2222 4.15017 23.4868 4.49817 23.6862 4.88424C24.106 5.62457 24.3247 6.46191 24.3206 7.31299C24.3452 7.75093 24.3086 8.19017 24.2118 8.61799H24.1574Z" fill="black"/>
</svg>
