<svg width="26" height="26" viewBox="0 0 26 26" fill="none" xmlns="http://www.w3.org/2000/svg">
<path fill-rule="evenodd" clip-rule="evenodd" d="M7.70925 0.243748C9.07775 0.180748 9.51408 0.166748 13.0001 0.166748C16.4861 0.166748 16.9224 0.181915 18.2897 0.243748C19.6571 0.305581 20.5904 0.523748 21.4071 0.839915C22.2622 1.16308 23.0381 1.66825 23.6797 2.32158C24.3331 2.96208 24.8371 3.73675 25.1591 4.59308C25.4764 5.40975 25.6934 6.34308 25.7564 7.70808C25.8194 9.07891 25.8334 9.51525 25.8334 13.0001C25.8334 16.4861 25.8182 16.9224 25.7564 18.2909C25.6946 19.6559 25.4764 20.5892 25.1591 21.4059C24.8371 22.2624 24.3322 23.0383 23.6797 23.6797C23.0381 24.3331 22.2622 24.8371 21.4071 25.1591C20.5904 25.4764 19.6571 25.6934 18.2921 25.7564C16.9224 25.8194 16.4861 25.8334 13.0001 25.8334C9.51408 25.8334 9.07775 25.8182 7.70925 25.7564C6.34425 25.6946 5.41091 25.4764 4.59425 25.1591C3.73782 24.837 2.96187 24.3322 2.32041 23.6797C1.66752 23.0389 1.16228 22.2633 0.839915 21.4071C0.523748 20.5904 0.306748 19.6571 0.243748 18.2921C0.180748 16.9212 0.166748 16.4849 0.166748 13.0001C0.166748 9.51408 0.181915 9.07775 0.243748 7.71041C0.305581 6.34308 0.523748 5.40975 0.839915 4.59308C1.16276 3.73684 1.66839 2.96128 2.32158 2.32041C2.96213 1.66767 3.7373 1.16243 4.59308 0.839915C5.40975 0.523748 6.34308 0.306748 7.70808 0.243748H7.70925ZM18.1859 2.55375C16.8326 2.49191 16.4266 2.47908 13.0001 2.47908C9.57358 2.47908 9.16758 2.49191 7.81425 2.55375C6.56241 2.61091 5.88341 2.81975 5.43075 2.99591C4.83225 3.22925 4.40408 3.50575 3.95491 3.95491C3.52913 4.36914 3.20146 4.87341 2.99591 5.43075C2.81975 5.88341 2.61091 6.56241 2.55375 7.81425C2.49191 9.16758 2.47908 9.57358 2.47908 13.0001C2.47908 16.4266 2.49191 16.8326 2.55375 18.1859C2.61091 19.4377 2.81975 20.1167 2.99591 20.5694C3.20125 21.1259 3.52908 21.6311 3.95491 22.0452C4.36908 22.4711 4.87425 22.7989 5.43075 23.0042C5.88341 23.1804 6.56241 23.3892 7.81425 23.4464C9.16758 23.5082 9.57241 23.5211 13.0001 23.5211C16.4277 23.5211 16.8326 23.5082 18.1859 23.4464C19.4377 23.3892 20.1167 23.1804 20.5694 23.0042C21.1679 22.7709 21.5961 22.4944 22.0452 22.0452C22.4711 21.6311 22.7989 21.1259 23.0042 20.5694C23.1804 20.1167 23.3892 19.4377 23.4464 18.1859C23.5082 16.8326 23.5211 16.4266 23.5211 13.0001C23.5211 9.57358 23.5082 9.16758 23.4464 7.81425C23.3892 6.56241 23.1804 5.88341 23.0042 5.43075C22.7709 4.83225 22.4944 4.40408 22.0452 3.95491C21.631 3.52916 21.1267 3.20149 20.5694 2.99591C20.1167 2.81975 19.4377 2.61091 18.1859 2.55375ZM11.3609 16.9562C12.2764 17.3373 13.2957 17.3887 14.2448 17.1018C15.194 16.8148 16.014 16.2071 16.565 15.3827C17.1159 14.5582 17.3635 13.5681 17.2655 12.5814C17.1675 11.5946 16.7299 10.6725 16.0276 9.97258C15.5799 9.52514 15.0385 9.18253 14.4425 8.96942C13.8464 8.75631 13.2106 8.678 12.5807 8.74013C11.9507 8.80226 11.3424 9.00329 10.7995 9.32873C10.2566 9.65418 9.79262 10.0959 9.44093 10.6222C9.08925 11.1485 8.85863 11.7463 8.76568 12.3724C8.67273 12.9985 8.71976 13.6374 8.90338 14.2432C9.087 14.8489 9.40264 15.4065 9.82759 15.8756C10.2525 16.3447 10.7762 16.7138 11.3609 16.9562ZM8.33575 8.33575C8.94828 7.72322 9.67545 7.23733 10.4758 6.90584C11.2761 6.57434 12.1338 6.40372 13.0001 6.40372C13.8663 6.40372 14.7241 6.57434 15.5244 6.90584C16.3247 7.23733 17.0519 7.72322 17.6644 8.33575C18.2769 8.94828 18.7628 9.67545 19.0943 10.4758C19.4258 11.2761 19.5964 12.1338 19.5964 13.0001C19.5964 13.8663 19.4258 14.7241 19.0943 15.5244C18.7628 16.3247 18.2769 17.0519 17.6644 17.6644C16.4274 18.9015 14.7495 19.5964 13.0001 19.5964C11.2506 19.5964 9.57281 18.9015 8.33575 17.6644C7.09869 16.4274 6.40372 14.7495 6.40372 13.0001C6.40372 11.2506 7.09869 9.57281 8.33575 8.33575ZM21.0594 7.38608C21.2112 7.2429 21.3327 7.07071 21.4168 6.87972C21.5008 6.68873 21.5457 6.48281 21.5487 6.27417C21.5518 6.06552 21.5129 5.85839 21.4345 5.66503C21.356 5.47167 21.2396 5.29601 21.092 5.14846C20.9445 5.00091 20.7688 4.88446 20.5755 4.80602C20.3821 4.72757 20.175 4.68872 19.9663 4.69176C19.7577 4.6948 19.5518 4.73968 19.3608 4.82373C19.1698 4.90778 18.9976 5.02929 18.8544 5.18108C18.5759 5.47628 18.4235 5.86839 18.4294 6.27417C18.4353 6.67994 18.5991 7.06744 18.8861 7.3544C19.1731 7.64136 19.5606 7.80518 19.9663 7.8111C20.3721 7.81701 20.7642 7.66455 21.0594 7.38608Z" fill="white"/>
</svg>
