<svg width="28" height="24" viewBox="0 0 28 24" fill="none" xmlns="http://www.w3.org/2000/svg">
<path d="M26.8334 1.50001C25.7162 2.28807 24.4792 2.89081 23.1701 3.28501C22.4674 2.47711 21.5336 1.90449 20.495 1.64459C19.4563 1.3847 18.3628 1.45007 17.3625 1.83188C16.3622 2.21368 15.5033 2.89348 14.9019 3.77935C14.3005 4.66522 13.9857 5.7144 14.0001 6.78501V7.95168C11.9498 8.00484 9.91823 7.55013 8.08626 6.62803C6.25428 5.70594 4.67878 4.34509 3.50008 2.66668C3.50008 2.66668 -1.16659 13.1667 9.33341 17.8333C6.9307 19.4643 4.06843 20.2821 1.16675 20.1667C11.6667 26 24.5001 20.1667 24.5001 6.75001C24.499 6.42504 24.4678 6.10087 24.4067 5.78168C25.5975 4.60742 26.4377 3.12484 26.8334 1.50001V1.50001Z" stroke="white" stroke-width="2" stroke-linecap="round" stroke-linejoin="round"/>
</svg>
