<svg width="25" height="25" viewBox="0 0 25 25" fill="none" xmlns="http://www.w3.org/2000/svg">
<path fill-rule="evenodd" clip-rule="evenodd" d="M20.7705 4.276C19.6963 3.19472 18.4182 2.33735 17.0103 1.75356C15.6024 1.16977 14.0926 0.871163 12.5685 0.875037C6.17729 0.875037 0.974458 6.07658 0.971875 12.4703C0.971875 14.5137 1.50533 16.5081 2.51929 18.2673L0.875 24.2749L7.02204 22.6616C8.72238 23.5872 10.6273 24.0725 12.5633 24.0734H12.5685C18.9583 24.0734 24.1612 18.8718 24.1637 12.4781C24.1681 10.9545 23.8705 9.44524 23.2881 8.03741C22.7057 6.62958 21.85 5.35114 20.7705 4.276ZM12.5685 22.1165H12.5646C10.8383 22.1167 9.14378 21.6522 7.65883 20.7719L7.3075 20.5626L3.65983 21.5197L4.63246 17.9638L4.40383 17.5995C3.43868 16.063 2.92776 14.2848 2.93004 12.4703C2.93263 7.15641 7.25583 2.8332 12.5723 2.8332C13.8385 2.83039 15.0926 3.07873 16.2622 3.56384C17.4317 4.04895 18.4934 4.7612 19.3859 5.65937C20.2831 6.55326 20.9942 7.61611 21.4782 8.78649C21.9622 9.95688 22.2094 11.2116 22.2056 12.4781C22.203 17.792 17.8798 22.1165 12.5685 22.1165ZM17.8552 14.8974C17.5646 14.7514 16.1412 14.0513 15.8751 13.9545C15.6103 13.8576 15.4179 13.8098 15.2241 14.0991C15.0304 14.3885 14.475 15.0407 14.3057 15.2345C14.1365 15.4282 13.9673 15.4515 13.678 15.3068C13.3887 15.1622 12.4548 14.856 11.3478 13.8692C10.4863 13.1007 9.90504 12.1526 9.73583 11.862C9.56662 11.5713 9.71775 11.415 9.86371 11.2704C9.99417 11.1412 10.153 10.932 10.2977 10.7627C10.4424 10.5935 10.4902 10.4734 10.587 10.2797C10.6839 10.0859 10.6361 9.9167 10.5625 9.77204C10.4902 9.62608 9.91021 8.20008 9.66867 7.62012C9.43487 7.05825 9.19592 7.13316 9.01767 7.12541C8.83306 7.11786 8.6483 7.11442 8.46354 7.11508C8.31662 7.11882 8.17206 7.15288 8.03892 7.21512C7.90578 7.27735 7.78693 7.36642 7.68983 7.47675C7.42375 7.76737 6.67588 8.46745 6.67588 9.89345C6.67588 11.3195 7.71437 12.6977 7.85904 12.8914C8.00371 13.0852 9.90246 16.0108 12.8087 17.2663C13.501 17.5647 14.041 17.7429 14.4607 17.8772C15.1544 18.0981 15.786 18.0658 16.2859 17.9922C16.8426 17.9095 17.9999 17.2921 18.2415 16.6153C18.483 15.9385 18.483 15.3585 18.4107 15.2371C18.3383 15.1157 18.1433 15.042 17.8552 14.8974Z" fill="white"/>
</svg>
